<mxfile host="app.diagrams.net" modified="2023-12-18T03:08:26.180Z" agent="Mozilla/5.0 (Macintosh; Intel Mac OS X 10_15_7) AppleWebKit/537.36 (KHTML, like Gecko) Chrome/120.0.0.0 Safari/537.36" version="22.1.11" etag="IzyhIg5S3c9ZcAgv68kF" type="github">
  <diagram name="第 1 页" id="fFxLprVTc2z-0SbgyYG7">
    <mxGraphModel>
      <root>
        <mxCell id="0" />
        <mxCell id="1" parent="0" />
      </root>
    </mxGraphModel>
  </diagram>
</mxfile>
